<?xml version="1.0" encoding="UTF-8"?>
<!DOCTYPE svg PUBLIC "-//W3C//DTD SVG 1.1//EN" "http://www.w3.org/Graphics/SVG/1.1/DTD/svg11.dtd">
<!-- Creator: CorelDRAW X7 -->
<svg xmlns="http://www.w3.org/2000/svg" xml:space="preserve" width="1.86335in" height="0.343346in" version="1.1" style="shape-rendering:geometricPrecision; text-rendering:geometricPrecision; image-rendering:optimizeQuality; fill-rule:evenodd; clip-rule:evenodd"
viewBox="0 0 1863 343"
 xmlns:xlink="http://www.w3.org/1999/xlink">
 <defs>
  <style type="text/css">
   <![CDATA[
    .fil0 {fill:white}
   ]]>
  </style>
 </defs>
 <g id="Layer_x0020_1">
  <metadata id="CorelCorpID_0Corel-Layer"/>
  <g id="_127308075024">
   <g>
    <g>
     <path class="fil0" d="M239 273c-13,24 -31,71 -49,71 -18,0 -40,-55 -48,-71 -2,-3 -4,-6 -6,-10 -12,-22 -33,-58 -36,-69l44 0c9,14 14,26 22,41 4,6 8,13 12,20 4,8 7,16 9,22 11,-7 20,-27 27,-39 8,-16 14,-30 23,-44l43 0c-3,16 -12,28 -19,40 -8,13 -14,26 -22,39z"/>
     <path class="fil0" d="M24 1l140 0c8,2 3,8 -9,21 -12,12 -10,15 -31,16 -30,0 -60,-1 -90,-1 8,16 56,77 66,84 17,-11 51,-49 68,-66 27,-28 45,-54 76,-54l113 0c21,0 37,9 37,30 0,21 -18,31 -30,43 -23,25 -62,66 -87,83 -12,-51 3,-51 33,-80 10,-11 30,-25 34,-40 -30,0 -65,-1 -94,0 -18,1 -18,7 -29,18 -11,11 -56,58 -86,87 -14,13 -25,22 -28,22 -29,0 -28,-5 -45,-28 -3,-4 -7,-8 -11,-13 -25,-29 -64,-68 -64,-99 0,-14 21,-23 37,-23z"/>
    </g>
    <path class="fil0" d="M477 134c44,0 37,-3 37,33 -32,8 -11,1 -37,0l0 57c0,20 8,20 16,20 10,-1 21,-2 21,30 -35,8 -63,7 -71,-34 0,-1 0,-1 0,-1 -4,-18 -3,-48 -3,-72 -18,2 -7,5 -26,0l0 -33 26 0 0 -53c12,-5 25,-4 37,-4l0 57z"/>
   </g>
   <path class="fil0" d="M797 237c5,10 11,15 13,27 -8,5 -14,8 -19,10 -10,4 -17,3 -37,3 -20,0 -36,-8 -47,-21 -33,-41 -20,-122 53,-122 28,0 34,12 50,17 -2,11 -9,21 -16,26 -13,-3 -29,-12 -45,-8 -36,10 -25,78 11,78 14,0 26,-7 37,-10z"/>
   <path class="fil0" d="M961 157c17,23 13,85 13,117l-37 0c0,-53 13,-112 -36,-105 -33,5 -24,65 -24,105l-33 0 0 -197 33 0 0 67c16,-3 56,-26 84,13z"/>
   <path class="fil0" d="M1040 138l4 13c8,-6 21,-17 40,-17 73,0 60,77 60,140l-37 0 0 -73c0,-39 -36,-39 -50,-24 -11,12 -7,70 -7,97l-36 0 0 -137 26 1z"/>
   <path class="fil0" d="M1244 134c36,0 73,34 73,70 0,38 -30,73 -77,73 -89,0 -92,-143 4,-143zm0 33c20,0 39,18 39,38 0,20 -15,39 -41,39 -47,0 -49,-77 2,-77z"/>
   <path class="fil0" d="M1464 137c-5,22 -62,123 -67,144l-7 0c-5,-24 -23,-52 -33,-73l-33 -71 40 0c10,20 21,55 33,64 5,-20 22,-44 27,-64l40 0z"/>
   <path class="fil0" d="M1684 77l0 197 -34 0 0 -197 34 0zm-80 0l0 197 -34 0 0 -187c0,-7 3,-10 10,-10l24 0z"/>
   <path class="fil0" d="M1717 204c0,-95 133,-83 133,-20l0 37 -93 0c1,36 47,27 73,13 4,13 10,14 14,27 -16,10 -19,16 -47,16 -49,0 -80,-19 -80,-73zm73 -11l-30 0c0,-12 13,-23 30,-23 16,0 30,11 30,23l-30 0zm-303 -96c0,-19 59,-23 37,24 -23,5 -37,7 -37,-24zm37 40l0 137 -37 0 0 -137 37 0z"/>
   <path class="fil0" d="M604 134c55,0 66,42 66,87l-100 0c4,7 5,11 11,16 17,15 49,6 66,-3 6,12 12,15 13,30 -11,3 -9,6 -20,10l-7 2c-6,1 -11,1 -19,1 -79,0 -77,-44 -77,-90 0,-26 29,-53 67,-53zm0 57l-30 0c0,-13 13,-23 30,-23 16,0 30,10 30,23l-30 0z"/>
  </g>
 </g>
</svg>
